<?xml version="1.0" encoding="UTF-8"?>
<svg id="Layer_2" data-name="Layer 2" xmlns="http://www.w3.org/2000/svg" viewBox="0 0 236.66 39.77">
  <defs>
    <style>
      .cls-1 {
        fill: #1f295c;
      }

      .cls-1, .cls-2, .cls-3, .cls-4, .cls-5, .cls-6, .cls-7 {
        stroke-width: 0px;
      }

      .cls-2 {
        fill: #58595b;
      }

      .cls-4 {
        fill: #159948;
      }

      .cls-8 {
        fill: none;
        stroke: #808285;
        stroke-linecap: round;
        stroke-linejoin: round;
        stroke-width: .16px;
      }

      .cls-5 {
        fill: #fff;
      }

      .cls-6 {
        fill: #009;
      }

      .cls-7 {
        fill: #c00;
      }
    </style>
  </defs>
  <g id="Layer_1-2" data-name="Layer 1">
    <g>
      <rect class="cls-5" y="0" width="236.66" height="39.77" rx="5" ry="5"/>
      <g>
        <g>
          <g>
            <g>
              <polygon class="cls-6" points="9.54 7.46 34.58 7.46 34.58 15.89 26.19 15.89 26.19 22.32 17.87 15.91 9.54 15.91 9.54 7.46"/>
              <polygon class="cls-7" points="34.58 26.24 9.54 26.24 9.54 24.06 17.93 24.09 17.93 17.65 26.26 24.06 34.58 24.06 34.58 26.24"/>
            </g>
            <g>
              <polygon class="cls-3" points="12.3 28.35 9.54 28.35 9.54 27.14 17.12 27.14 17.12 28.35 14.21 28.35 14.21 32.31 12.3 32.31 12.3 28.35"/>
              <path class="cls-3" d="m20.03,32.31h-1.81v-5.17h6.31c.61,0,1.11.5,1.11,1.11v4.06h-1.81v-3.33c0-.35-.29-.64-.64-.64h-3.15l-.03,3.98Z"/>
              <path class="cls-3" d="m34.58,27.14h-6.3c-.72,0-1.3.58-1.3,1.3v.7c0,.72.58,1.3,1.3,1.3h4.79c.13,0,.23.1.23.23v.1c0,.13-.1.23-.23.23h-6.09v1.3h6.21c.77,0,1.39-.62,1.39-1.39v-.43c0-.77-.62-1.39-1.39-1.39h-4.7c-.13,0-.23-.1-.23-.23v-.3c0-.13.1-.23.23-.23h6.09v-1.19Z"/>
            </g>
          </g>
          <line class="cls-8" x1="36.74" y1="8.02" x2="36.74" y2="31.75"/>
          <g>
            <path class="cls-2" d="m39.83,14.29v-3.48h-1.24v-.71h3.33v.71h-1.24v3.48h-.85Z"/>
            <path class="cls-2" d="m42.67,14.29v-4.19h.85v1.65h1.66v-1.65h.85v4.19h-.85v-1.83h-1.66v1.83h-.85Z"/>
            <path class="cls-2" d="m50.88,14.29h-.92l-.37-.95h-1.67l-.35.95h-.9l1.63-4.19h.89l1.68,4.19Zm-1.56-1.66l-.58-1.55-.57,1.55h1.14Z"/>
            <path class="cls-2" d="m51.51,14.29v-4.19h.85v4.19h-.85Z"/>
            <path class="cls-2" d="m55,14.29v-4.19h.82l1.71,2.8v-2.8h.79v4.19h-.85l-1.69-2.73v2.73h-.79Z"/>
            <path class="cls-2" d="m59.4,14.29v-4.19h.85v4.19h-.85Z"/>
            <path class="cls-2" d="m61.25,14.29v-4.19h1.36c.51,0,.85.02,1.01.06.24.06.44.2.6.41.16.21.24.48.24.82,0,.26-.05.47-.14.65-.09.18-.21.31-.36.41-.14.1-.29.17-.44.2-.2.04-.49.06-.88.06h-.55v1.58h-.85Zm.85-3.48v1.19h.46c.33,0,.56-.02.67-.07.11-.04.2-.11.26-.21.06-.09.1-.2.1-.33,0-.15-.04-.28-.13-.38-.09-.1-.2-.16-.34-.19-.1-.02-.3-.03-.61-.03h-.41Z"/>
            <path class="cls-2" d="m65.36,14.29v-4.19h1.36c.51,0,.85.02,1.01.06.24.06.44.2.6.41.16.21.24.48.24.82,0,.26-.05.47-.14.65-.09.18-.21.31-.36.41-.14.1-.29.17-.44.2-.2.04-.49.06-.88.06h-.55v1.58h-.85Zm.85-3.48v1.19h.46c.33,0,.56-.02.67-.07.11-.04.2-.11.26-.21.06-.09.1-.2.1-.33,0-.15-.04-.28-.13-.38-.09-.1-.2-.16-.34-.19-.1-.02-.3-.03-.61-.03h-.41Z"/>
            <path class="cls-2" d="m69.3,12.22c0-.43.06-.78.19-1.07.1-.21.23-.4.39-.57.16-.17.35-.3.54-.38.26-.11.56-.17.9-.17.62,0,1.11.19,1.48.57s.56.92.56,1.6-.18,1.21-.55,1.59c-.37.38-.86.57-1.47.57s-1.12-.19-1.49-.57c-.37-.38-.55-.9-.55-1.57Zm.87-.03c0,.47.11.83.33,1.08.22.24.5.37.83.37s.61-.12.83-.36c.22-.24.32-.61.32-1.09s-.11-.84-.32-1.07c-.21-.24-.49-.35-.84-.35s-.63.12-.84.36c-.21.24-.32.6-.32,1.08Z"/>
            <path class="cls-2" d="m74.24,14.29v-4.19h.82l1.71,2.8v-2.8h.79v4.19h-.85l-1.69-2.73v2.73h-.79Z"/>
            <path class="cls-2" d="m80.07,12.92l.82-.08c.05.28.15.48.3.61.15.13.36.19.61.19.27,0,.48-.06.62-.17.14-.12.21-.25.21-.4,0-.1-.03-.18-.09-.25-.06-.07-.16-.13-.3-.18-.1-.03-.32-.1-.68-.18-.45-.11-.77-.25-.95-.41-.26-.23-.39-.51-.39-.84,0-.21.06-.41.18-.6.12-.19.3-.33.52-.42.23-.1.5-.15.82-.15.53,0,.92.12,1.19.35.27.23.41.54.42.92l-.85.04c-.04-.22-.11-.37-.23-.46-.12-.09-.3-.14-.54-.14s-.44.05-.58.15c-.09.06-.13.15-.13.26,0,.1.04.18.13.25.11.09.37.18.78.28s.72.2.91.3c.2.1.35.25.46.43.11.18.17.4.17.67,0,.24-.07.46-.2.67-.13.21-.32.37-.57.47-.24.1-.55.15-.91.15-.53,0-.94-.12-1.22-.37-.28-.24-.45-.6-.51-1.07Z"/>
            <path class="cls-2" d="m85.34,14.29v-3.48h-1.24v-.71h3.33v.71h-1.24v3.48h-.85Z"/>
            <path class="cls-2" d="m88.17,14.29v-4.19h3.11v.71h-2.26v.93h2.1v.71h-2.1v1.14h2.34v.71h-3.19Z"/>
            <path class="cls-2" d="m92.28,14.29v-4.19h3.11v.71h-2.26v.93h2.1v.71h-2.1v1.14h2.34v.71h-3.19Z"/>
            <path class="cls-2" d="m96.42,14.29v-4.15h.85v3.45h2.1v.71h-2.95Z"/>
            <path class="cls-2" d="m38.89,22.01v-4.19h3.11v.71h-2.26v.93h2.1v.71h-2.1v1.14h2.34v.71h-3.19Z"/>
            <path class="cls-2" d="m43.01,22.01v-4.19h.82l1.71,2.8v-2.8h.79v4.19h-.85l-1.69-2.73v2.73h-.79Z"/>
            <path class="cls-2" d="m49.38,20.47v-.71h1.82v1.67c-.18.17-.43.32-.77.45-.34.13-.68.2-1.02.2-.44,0-.82-.09-1.15-.28-.33-.18-.57-.45-.73-.79-.16-.34-.25-.71-.25-1.12,0-.44.09-.82.27-1.16.18-.34.45-.6.8-.78.27-.14.6-.21,1-.21.52,0,.93.11,1.22.33s.48.52.56.9l-.84.16c-.06-.21-.17-.37-.33-.49-.16-.12-.37-.18-.61-.18-.37,0-.66.12-.88.35-.22.23-.33.58-.33,1.04,0,.5.11.87.33,1.12.22.25.51.37.87.37.18,0,.35-.03.53-.1.18-.07.33-.15.46-.25v-.53h-.97Z"/>
            <path class="cls-2" d="m52.16,22.01v-4.19h.85v4.19h-.85Z"/>
            <path class="cls-2" d="m54.03,22.01v-4.19h.82l1.71,2.8v-2.8h.79v4.19h-.85l-1.69-2.73v2.73h-.79Z"/>
            <path class="cls-2" d="m58.45,22.01v-4.19h3.11v.71h-2.26v.93h2.1v.71h-2.1v1.14h2.34v.71h-3.19Z"/>
            <path class="cls-2" d="m62.56,22.01v-4.19h3.11v.71h-2.26v.93h2.1v.71h-2.1v1.14h2.34v.71h-3.19Z"/>
            <path class="cls-2" d="m66.67,22.01v-4.19h1.78c.45,0,.77.04.98.11.2.08.37.21.49.4.12.19.18.41.18.66,0,.31-.09.57-.28.78-.18.2-.46.33-.83.39.18.11.33.22.45.35.12.13.28.35.48.68l.51.82h-1.01l-.61-.91c-.22-.33-.37-.53-.45-.62s-.16-.14-.25-.17c-.09-.03-.23-.05-.43-.05h-.17v1.75h-.85Zm.85-2.42h.63c.41,0,.66-.02.76-.05.1-.03.18-.09.24-.18.06-.08.09-.19.09-.31,0-.14-.04-.25-.11-.34-.08-.09-.18-.14-.32-.16-.07,0-.27-.01-.62-.01h-.66v1.06Z"/>
            <path class="cls-2" d="m71.07,22.01v-4.19h.85v4.19h-.85Z"/>
            <path class="cls-2" d="m72.94,22.01v-4.19h.82l1.71,2.8v-2.8h.79v4.19h-.85l-1.69-2.73v2.73h-.79Z"/>
            <path class="cls-2" d="m79.31,20.47v-.71h1.82v1.67c-.18.17-.43.32-.77.45-.34.13-.68.2-1.02.2-.44,0-.82-.09-1.15-.28-.33-.18-.57-.45-.73-.79-.16-.34-.25-.71-.25-1.12,0-.44.09-.82.27-1.16.18-.34.45-.6.8-.78.27-.14.6-.21,1-.21.52,0,.93.11,1.22.33s.48.52.56.9l-.84.16c-.06-.21-.17-.37-.33-.49-.16-.12-.37-.18-.61-.18-.37,0-.66.12-.88.35-.22.23-.33.58-.33,1.04,0,.5.11.87.33,1.12.22.25.51.37.87.37.18,0,.35-.03.53-.1.18-.07.33-.15.46-.25v-.53h-.97Z"/>
            <path class="cls-2" d="m87.35,21.5l-.49.62c-.24-.12-.47-.28-.69-.48-.17.15-.35.26-.54.34-.19.07-.42.11-.68.11-.52,0-.91-.15-1.18-.44-.2-.23-.31-.49-.31-.78,0-.27.08-.51.24-.72.16-.21.4-.4.72-.56-.14-.17-.25-.33-.32-.48-.07-.15-.11-.3-.11-.44,0-.25.1-.47.3-.64.2-.18.49-.26.87-.26s.64.09.85.28c.2.18.31.41.31.68,0,.17-.05.33-.15.48-.1.15-.3.32-.61.52l.58.77c.07-.12.13-.28.18-.48l.73.17c-.07.26-.14.45-.19.56-.05.12-.11.22-.17.3.09.08.21.18.35.28.14.1.25.17.31.2Zm-2.5-1.41c-.18.09-.32.21-.41.34s-.14.27-.14.4c0,.17.06.31.17.42.11.11.27.16.46.16.13,0,.25-.02.36-.07.12-.05.24-.13.38-.25l-.82-1.01Zm.31-.87l.22-.17c.16-.12.24-.25.24-.37,0-.1-.04-.19-.12-.26-.08-.07-.18-.11-.31-.11s-.23.03-.3.1c-.07.06-.11.14-.11.22,0,.1.06.22.18.36l.2.23Z"/>
            <path class="cls-2" d="m92.28,20.47l.82.26c-.13.46-.33.8-.63,1.02-.29.22-.66.33-1.11.33-.56,0-1.01-.19-1.37-.57-.36-.38-.54-.9-.54-1.56,0-.7.18-1.24.54-1.62.36-.39.83-.58,1.42-.58.51,0,.93.15,1.25.45.19.18.33.44.43.77l-.84.2c-.05-.22-.15-.39-.31-.51-.16-.13-.35-.19-.57-.19-.31,0-.56.11-.76.33-.19.22-.29.58-.29,1.08,0,.53.1.91.29,1.13.19.22.44.34.74.34.22,0,.42-.07.58-.21.16-.14.28-.37.35-.67Z"/>
            <path class="cls-2" d="m93.86,19.94c0-.43.06-.78.19-1.07.1-.21.23-.4.39-.57.16-.17.35-.3.54-.38.26-.11.56-.17.9-.17.62,0,1.11.19,1.48.57s.56.92.56,1.6-.18,1.21-.55,1.59c-.37.38-.86.57-1.47.57s-1.12-.19-1.49-.57c-.37-.38-.55-.9-.55-1.57Zm.87-.03c0,.47.11.83.33,1.08.22.24.5.37.83.37s.61-.12.83-.36c.22-.24.32-.61.32-1.09s-.11-.84-.32-1.07c-.21-.24-.49-.35-.84-.35s-.63.12-.84.36c-.21.24-.32.6-.32,1.08Z"/>
            <path class="cls-2" d="m98.8,22.01v-4.19h.82l1.71,2.8v-2.8h.79v4.19h-.85l-1.69-2.73v2.73h-.79Z"/>
            <path class="cls-2" d="m103,20.65l.82-.08c.05.28.15.48.3.61.15.13.36.19.61.19.27,0,.48-.06.62-.17.14-.12.21-.25.21-.4,0-.1-.03-.18-.09-.25-.06-.07-.16-.13-.3-.18-.1-.03-.32-.1-.68-.18-.45-.11-.77-.25-.95-.41-.26-.23-.39-.51-.39-.84,0-.21.06-.41.18-.6.12-.19.3-.33.52-.42.23-.1.5-.15.82-.15.53,0,.92.12,1.19.35.27.23.41.54.42.92l-.85.04c-.04-.22-.11-.37-.23-.46-.12-.09-.3-.14-.54-.14s-.44.05-.58.15c-.09.06-.13.15-.13.26,0,.1.04.18.13.25.11.09.37.18.78.28s.72.2.91.3c.2.1.35.25.46.43.11.18.17.4.17.67,0,.24-.07.46-.2.67-.13.21-.32.37-.57.47-.24.1-.55.15-.91.15-.53,0-.94-.12-1.22-.37-.28-.24-.45-.6-.51-1.07Z"/>
            <path class="cls-2" d="m108.27,22.01v-3.48h-1.24v-.71h3.33v.71h-1.24v3.48h-.85Z"/>
            <path class="cls-2" d="m111.11,22.01v-4.19h1.78c.45,0,.77.04.98.11.2.08.37.21.49.4.12.19.18.41.18.66,0,.31-.09.57-.28.78-.18.2-.46.33-.83.39.18.11.33.22.45.35.12.13.28.35.48.68l.51.82h-1.01l-.61-.91c-.22-.33-.37-.53-.45-.62s-.16-.14-.25-.17c-.09-.03-.23-.05-.43-.05h-.17v1.75h-.85Zm.85-2.42h.63c.41,0,.66-.02.76-.05.1-.03.18-.09.24-.18.06-.08.09-.19.09-.31,0-.14-.04-.25-.11-.34-.08-.09-.18-.14-.32-.16-.07,0-.27-.01-.62-.01h-.66v1.06Z"/>
            <path class="cls-2" d="m115.53,17.82h.85v2.27c0,.36.01.59.03.7.04.17.12.31.26.41s.32.16.56.16.42-.05.54-.15c.12-.1.2-.22.22-.36.02-.14.04-.38.04-.71v-2.32h.85v2.2c0,.5-.02.86-.07,1.07-.05.21-.13.38-.25.53-.12.14-.29.26-.49.34-.21.08-.47.13-.81.13-.4,0-.7-.05-.91-.14-.21-.09-.37-.21-.49-.36-.12-.15-.2-.3-.24-.46-.06-.24-.08-.59-.08-1.06v-2.23Z"/>
            <path class="cls-2" d="m122.65,20.47l.82.26c-.13.46-.33.8-.63,1.02-.29.22-.66.33-1.11.33-.56,0-1.01-.19-1.37-.57-.36-.38-.54-.9-.54-1.56,0-.7.18-1.24.54-1.62.36-.39.83-.58,1.42-.58.51,0,.93.15,1.25.45.19.18.33.44.43.77l-.84.2c-.05-.22-.15-.39-.31-.51-.16-.13-.35-.19-.57-.19-.31,0-.56.11-.76.33-.19.22-.29.58-.29,1.08,0,.53.1.91.29,1.13.19.22.44.34.74.34.22,0,.42-.07.58-.21.16-.14.28-.37.35-.67Z"/>
            <path class="cls-2" d="m125.35,22.01v-3.48h-1.24v-.71h3.33v.71h-1.24v3.48h-.85Z"/>
            <path class="cls-2" d="m128.16,22.01v-4.19h.85v4.19h-.85Z"/>
            <path class="cls-2" d="m129.84,19.94c0-.43.06-.78.19-1.07.1-.21.23-.4.39-.57.16-.17.35-.3.54-.38.26-.11.56-.17.9-.17.62,0,1.11.19,1.48.57s.56.92.56,1.6-.18,1.21-.55,1.59c-.37.38-.86.57-1.47.57s-1.12-.19-1.49-.57c-.37-.38-.55-.9-.55-1.57Zm.87-.03c0,.47.11.83.33,1.08.22.24.5.37.83.37s.61-.12.83-.36c.22-.24.32-.61.32-1.09s-.11-.84-.32-1.07c-.21-.24-.49-.35-.84-.35s-.63.12-.84.36c-.21.24-.32.6-.32,1.08Z"/>
            <path class="cls-2" d="m134.78,22.01v-4.19h.82l1.71,2.8v-2.8h.79v4.19h-.85l-1.69-2.73v2.73h-.79Z"/>
            <path class="cls-2" d="m41.57,28.19l.82.26c-.13.46-.33.8-.63,1.02-.29.22-.66.33-1.11.33-.56,0-1.01-.19-1.37-.57-.36-.38-.54-.9-.54-1.56,0-.7.18-1.24.54-1.62.36-.39.83-.58,1.42-.58.51,0,.93.15,1.25.45.19.18.33.44.43.77l-.84.2c-.05-.22-.15-.39-.31-.51-.16-.13-.35-.19-.57-.19-.31,0-.56.11-.76.33-.19.22-.29.58-.29,1.08,0,.53.1.91.29,1.13.19.22.44.34.74.34.22,0,.42-.07.58-.21.16-.14.28-.37.35-.67Z"/>
            <path class="cls-2" d="m43.15,27.67c0-.43.06-.78.19-1.07.1-.21.23-.4.39-.57.16-.17.35-.3.54-.38.26-.11.56-.17.9-.17.62,0,1.11.19,1.48.57s.56.92.56,1.6-.18,1.21-.55,1.59c-.37.38-.86.57-1.47.57s-1.12-.19-1.49-.57c-.37-.38-.55-.9-.55-1.57Zm.87-.03c0,.47.11.83.33,1.08.22.24.5.37.83.37s.61-.12.83-.36c.22-.24.32-.61.32-1.09s-.11-.84-.32-1.07c-.21-.24-.49-.35-.84-.35s-.63.12-.84.36c-.21.24-.32.6-.32,1.08Z"/>
            <path class="cls-2" d="m48.08,29.73v-4.19h1.78c.45,0,.77.04.98.11.2.08.37.21.49.4.12.19.18.41.18.66,0,.31-.09.57-.28.78-.18.2-.46.33-.83.39.18.11.33.22.45.35.12.13.28.35.48.68l.51.82h-1.01l-.61-.91c-.22-.33-.37-.53-.45-.62s-.16-.14-.25-.17c-.09-.03-.23-.05-.43-.05h-.17v1.75h-.85Zm.85-2.42h.63c.41,0,.66-.02.76-.05.1-.03.18-.09.24-.18.06-.08.09-.19.09-.31,0-.14-.04-.25-.11-.34-.08-.09-.18-.14-.32-.16-.07,0-.27-.01-.62-.01h-.66v1.06Z"/>
            <path class="cls-2" d="m52.51,29.73v-4.19h1.36c.51,0,.85.02,1.01.06.24.06.44.2.6.41.16.21.24.48.24.82,0,.26-.05.47-.14.65-.09.18-.21.31-.36.41-.14.1-.29.17-.44.2-.2.04-.49.06-.88.06h-.55v1.58h-.85Zm.85-3.48v1.19h.46c.33,0,.56-.02.67-.07.11-.04.2-.11.26-.21.06-.09.1-.2.1-.33,0-.15-.04-.28-.13-.38-.09-.1-.2-.16-.34-.19-.1-.02-.3-.03-.61-.03h-.41Z"/>
            <path class="cls-2" d="m56.45,27.67c0-.43.06-.78.19-1.07.1-.21.23-.4.39-.57.16-.17.35-.3.54-.38.26-.11.56-.17.9-.17.62,0,1.11.19,1.48.57s.56.92.56,1.6-.18,1.21-.55,1.59c-.37.38-.86.57-1.47.57s-1.12-.19-1.49-.57c-.37-.38-.55-.9-.55-1.57Zm.87-.03c0,.47.11.83.33,1.08.22.24.5.37.83.37s.61-.12.83-.36c.22-.24.32-.61.32-1.09s-.11-.84-.32-1.07c-.21-.24-.49-.35-.84-.35s-.63.12-.84.36c-.21.24-.32.6-.32,1.08Z"/>
            <path class="cls-2" d="m61.38,29.73v-4.19h1.78c.45,0,.77.04.98.11.2.08.37.21.49.4.12.19.18.41.18.66,0,.31-.09.57-.28.78-.18.2-.46.33-.83.39.18.11.33.22.45.35.12.13.28.35.48.68l.51.82h-1.01l-.61-.91c-.22-.33-.37-.53-.45-.62s-.16-.14-.25-.17c-.09-.03-.23-.05-.43-.05h-.17v1.75h-.85Zm.85-2.42h.63c.41,0,.66-.02.76-.05.1-.03.18-.09.24-.18.06-.08.09-.19.09-.31,0-.14-.04-.25-.11-.34-.08-.09-.18-.14-.32-.16-.07,0-.27-.01-.62-.01h-.66v1.06Z"/>
            <path class="cls-2" d="m69.59,29.73h-.92l-.37-.95h-1.67l-.35.95h-.9l1.63-4.19h.89l1.68,4.19Zm-1.56-1.66l-.58-1.55-.57,1.55h1.14Z"/>
            <path class="cls-2" d="m70.75,29.73v-3.48h-1.24v-.71h3.33v.71h-1.24v3.48h-.85Z"/>
            <path class="cls-2" d="m73.56,29.73v-4.19h.85v4.19h-.85Z"/>
            <path class="cls-2" d="m75.25,27.67c0-.43.06-.78.19-1.07.1-.21.23-.4.39-.57.16-.17.35-.3.54-.38.26-.11.56-.17.9-.17.62,0,1.11.19,1.48.57s.56.92.56,1.6-.18,1.21-.55,1.59c-.37.38-.86.57-1.47.57s-1.12-.19-1.49-.57c-.37-.38-.55-.9-.55-1.57Zm.87-.03c0,.47.11.83.33,1.08.22.24.5.37.83.37s.61-.12.83-.36c.22-.24.32-.61.32-1.09s-.11-.84-.32-1.07c-.21-.24-.49-.35-.84-.35s-.63.12-.84.36c-.21.24-.32.6-.32,1.08Z"/>
            <path class="cls-2" d="m80.18,29.73v-4.19h.82l1.71,2.8v-2.8h.79v4.19h-.85l-1.69-2.73v2.73h-.79Z"/>
            <path class="cls-2" d="m86.25,29.73v-4.15h.85v3.45h2.1v.71h-2.95Z"/>
            <path class="cls-2" d="m90.52,29.73v-3.48h-1.24v-.71h3.33v.71h-1.24v3.48h-.85Z"/>
            <path class="cls-2" d="m93.36,25.55h1.55c.35,0,.61.03.8.08.25.07.46.2.63.39.18.18.31.41.4.68.09.27.14.6.14.99,0,.34-.04.64-.13.89-.1.3-.25.55-.45.74-.15.14-.34.25-.59.33-.19.06-.44.09-.75.09h-1.59v-4.19Zm.85.71v2.77h.63c.24,0,.41-.01.51-.04.14-.03.25-.09.34-.17.09-.08.16-.22.22-.4.06-.19.09-.44.09-.77s-.03-.57-.09-.75c-.06-.17-.14-.31-.24-.41s-.23-.16-.39-.2c-.12-.03-.35-.04-.69-.04h-.38Z"/>
            <path class="cls-2" d="m97.68,29.73v-.8h.8v.8h-.8Z"/>
          </g>
        </g>
        <g>
          <g>
            <rect class="cls-4" x="174.14" y="14.89" width="50.28" height="17.42"/>
            <g>
              <path class="cls-5" d="m186.81,21.47c.42.21.74.52.97.92.23.4.34.86.34,1.4s-.11.99-.34,1.39c-.23.39-.55.69-.97.9-.42.21-.91.31-1.46.31h-1.71v-5.23h1.71c.56,0,1.05.11,1.46.32Zm-.06,3.72c.33-.33.49-.8.49-1.4s-.16-1.08-.49-1.42c-.33-.34-.8-.51-1.41-.51h-.85v3.83h.85c.61,0,1.08-.17,1.41-.5Z"/>
              <path class="cls-5" d="m189.84,21.15v5.23h-.86v-5.23h.86Z"/>
              <path class="cls-5" d="m195.48,21.15l-1.97,5.23h-.99l-1.97-5.23h.92l1.55,4.35,1.56-4.35h.9Z"/>
              <path class="cls-5" d="m197.05,21.15v5.23h-.86v-5.23h.86Z"/>
              <path class="cls-5" d="m198.96,26.26c-.28-.12-.5-.3-.66-.52-.16-.23-.24-.49-.24-.79h.92c.02.23.11.41.27.56.16.15.38.22.67.22s.53-.07.69-.21c.17-.14.25-.33.25-.55,0-.18-.05-.32-.15-.43-.1-.11-.23-.2-.38-.26-.15-.06-.37-.13-.64-.2-.34-.09-.62-.18-.83-.27-.21-.09-.4-.24-.55-.43-.15-.2-.23-.46-.23-.78,0-.3.08-.56.23-.79.15-.23.36-.4.63-.52.27-.12.58-.18.94-.18.51,0,.92.13,1.25.38.32.25.5.6.54,1.04h-.95c-.02-.19-.11-.35-.27-.49s-.38-.2-.66-.2c-.25,0-.45.06-.6.19-.16.13-.23.31-.23.54,0,.16.05.29.15.4.1.1.22.18.37.24s.36.13.62.2c.35.1.63.19.85.29.22.1.4.24.56.44.15.2.23.46.23.79,0,.27-.07.52-.21.75-.14.24-.35.43-.63.57-.27.14-.6.21-.97.21-.35,0-.67-.06-.95-.18Z"/>
              <path class="cls-5" d="m203.59,21.15v5.23h-.86v-5.23h.86Z"/>
              <path class="cls-5" d="m205.76,26.1c-.41-.23-.73-.55-.97-.96-.24-.41-.36-.87-.36-1.38s.12-.97.36-1.38c.24-.41.56-.72.97-.95.41-.23.86-.34,1.34-.34s.94.11,1.35.34c.41.23.73.55.97.95.24.41.35.87.35,1.38s-.12.97-.35,1.38c-.24.41-.56.73-.97.96-.41.23-.86.34-1.35.34s-.94-.11-1.34-.34Zm2.27-.64c.27-.16.48-.38.64-.68.15-.29.23-.63.23-1.02s-.08-.73-.23-1.02c-.15-.29-.37-.51-.64-.67-.27-.16-.58-.23-.93-.23s-.66.08-.93.23c-.27.16-.48.38-.64.67-.15.29-.23.63-.23,1.02s.08.73.23,1.02c.15.29.37.52.64.68.27.16.58.24.93.24s.66-.08.93-.24Z"/>
              <path class="cls-5" d="m214.92,26.39h-.86l-2.58-3.91v3.91h-.86v-5.24h.86l2.58,3.9v-3.9h.86v5.24Z"/>
            </g>
          </g>
          <g>
            <rect class="cls-1" x="146.61" y="14.89" width="27.52" height="17.42"/>
            <g>
              <path class="cls-5" d="m157.4,20.86v.73h-1.46v4.74h-.9v-4.74h-1.46v-.73h3.82Z"/>
              <path class="cls-5" d="m161.84,20.86v.73h-1.46v4.74h-.9v-4.74h-1.46v-.73h3.82Z"/>
              <path class="cls-5" d="m162.43,22.14c.25-.43.59-.76,1.02-1,.43-.24.9-.36,1.41-.36.58,0,1.1.14,1.56.43.45.29.78.69.99,1.22h-1.08c-.14-.29-.34-.5-.59-.65s-.54-.21-.87-.21c-.36,0-.69.08-.97.24-.28.16-.51.4-.67.7-.16.3-.24.66-.24,1.06s.08.76.24,1.06c.16.3.38.54.67.7.28.17.61.25.97.25.33,0,.62-.07.87-.21.25-.14.45-.36.59-.65h1.08c-.2.52-.53.93-.99,1.21-.45.28-.97.43-1.56.43-.51,0-.98-.12-1.41-.36-.43-.24-.76-.57-1.01-1-.25-.43-.37-.91-.37-1.44s.12-1.02.37-1.44Z"/>
            </g>
          </g>
        </g>
      </g>
    </g>
  </g>
</svg>